<svg width="24" height="24" viewBox="0 0 24 24" fill="none" xmlns="http://www.w3.org/2000/svg">
<rect width="24" height="24" rx="12" fill="#FFC491"/>
<path fill-rule="evenodd" clip-rule="evenodd" d="M18.427 16.8849C18.0154 18.1355 16.4029 18.7595 15.2509 18.6555C13.6776 18.5133 11.9656 17.6787 10.666 16.7596C8.75576 15.4085 6.96642 13.3188 5.92374 11.1011C5.18685 9.53407 5.02151 7.60703 6.11752 6.17864C6.52286 5.65066 6.96197 5.36889 7.61976 5.336C8.53354 5.29156 8.66154 5.81421 8.97532 6.6284C9.2091 7.23727 9.5211 7.85858 9.69533 8.48967C10.0216 9.6674 8.8811 9.71629 8.7371 10.6789C8.64821 11.286 9.38332 12.1002 9.71577 12.5331C10.3566 13.3761 11.1414 14.0992 12.034 14.669C12.5407 14.9881 13.3567 15.5632 13.9362 15.2459C14.8287 14.757 14.7451 13.2522 15.9923 13.7615C16.6385 14.0246 17.2643 14.4041 17.8812 14.7366C18.835 15.2494 18.7905 15.781 18.427 16.8849C18.699 16.0601 18.1549 17.7098 18.427 16.8849Z" fill="#2C2C2C"/>
</svg>
