<svg width="25" height="24" viewBox="0 0 25 24" fill="none" xmlns="http://www.w3.org/2000/svg">
<path d="M8.15723 3C8.612 3 8.98068 3.33579 8.98068 3.75V4.00345C9.39079 3.99999 9.8278 3.99999 10.2929 4H13.7071C14.1721 3.99999 14.6092 3.99999 15.0192 4.00345V3.75C15.0192 3.33579 15.3879 3 15.8427 3C16.2975 3 16.6661 3.33579 16.6661 3.75V4.05277C16.9153 4.06872 17.15 4.08948 17.3708 4.11653C18.359 4.23754 19.1912 4.49644 19.852 5.09835C20.5128 5.70027 20.7971 6.45814 20.93 7.35825C20.9597 7.55938 20.9824 7.77317 21 8H3C3.0175 7.77317 3.04031 7.55938 3.06999 7.35825C3.20286 6.45814 3.48711 5.70027 4.14797 5.09835C4.80883 4.49644 5.64093 4.23754 6.62919 4.11653C6.85 4.08948 7.08473 4.06872 7.33378 4.05277V3.75C7.33378 3.33579 7.70245 3 8.15723 3Z" fill="#FFC491"/>
<path fill-rule="evenodd" clip-rule="evenodd" d="M3 11.3144C2.99999 10.8486 2.99999 10.4108 3.00375 10H20.9963C21 10.4107 21 10.8485 21 11.3143V14.7144C21 15.709 21.0001 16.5112 20.9419 17.1584C20.882 17.8254 20.7551 18.4082 20.4519 18.9375C20.0929 19.5646 19.5765 20.0854 18.9545 20.4474C18.4296 20.7529 17.8516 20.8809 17.1901 20.9414C16.5484 21 15.7528 21 14.7664 21H10.3038C8.81193 21 7.6093 21 6.66356 20.8718C5.68161 20.7387 4.85483 20.454 4.1982 19.7919C3.54156 19.1297 3.25914 18.2961 3.12711 17.306C2.99996 16.3523 2.99998 15.1398 3 13.6354V11.3144ZM6.59339 15.9707C6.59339 15.515 6.95969 15.1457 7.41157 15.1457H13.2364C13.6883 15.1457 14.0546 15.515 14.0546 15.9707C14.0546 16.4263 13.6883 16.7957 13.2364 16.7957H7.41157C6.95969 16.7957 6.59339 16.4263 6.59339 15.9707ZM7.41157 12.0209C6.95969 12.0209 6.59339 12.3902 6.59339 12.8459C6.59339 13.3015 6.95969 13.6709 7.41157 13.6709H10.6843C11.1362 13.6709 11.5025 13.3015 11.5025 12.8459C11.5025 12.3902 11.1362 12.0209 10.6843 12.0209H7.41157Z" fill="#FFC491"/>
</svg>
