<svg width="56" height="55" viewBox="0 0 56 55" fill="none" xmlns="http://www.w3.org/2000/svg">
<rect x="1" y="0.5" width="54" height="54" rx="27" fill="#FFC491" fill-opacity="0.13"/>
<rect x="1" y="0.5" width="54" height="54" rx="27" stroke="#FFC491"/>
<path fill-rule="evenodd" clip-rule="evenodd" d="M38.0422 35.1323C37.3991 37.0864 34.8796 38.0614 33.0796 37.8989C30.6213 37.6767 27.9462 36.3725 25.9157 34.9365C22.9309 32.8254 20.1351 29.5603 18.5059 26.0951C17.3545 23.6466 17.0962 20.6356 18.8087 18.4037C19.442 17.5788 20.1281 17.1385 21.1559 17.0871C22.5837 17.0177 22.7837 17.8343 23.274 19.1065C23.6393 20.0578 24.1268 21.0286 24.399 22.0147C24.9087 23.8549 23.1268 23.9313 22.9018 25.4354C22.7629 26.384 23.9115 27.6562 24.4309 28.3325C25.4322 29.6498 26.6585 30.7797 28.0532 31.6699C28.8449 32.1685 30.1199 33.0671 31.0254 32.5713C32.4199 31.8074 32.2893 29.4561 34.238 30.2519C35.2477 30.663 36.2255 31.2561 37.1894 31.7755C38.6797 32.5768 38.6102 33.4074 38.0422 35.1323C38.4672 33.8435 37.6172 36.4211 38.0422 35.1323Z" fill="#FFC491"/>
</svg>
