<svg width="18" height="16" viewBox="0 0 18 16" fill="none" xmlns="http://www.w3.org/2000/svg">
<path d="M4.91136 3.13023V3.88023C5.16277 3.88023 5.39746 3.75426 5.53641 3.54474L4.91136 3.13023ZM6.01145 1.47137L5.3864 1.05687L5.3864 1.05687L6.01145 1.47137ZM11.634 1.47137L12.2591 1.05687V1.05687L11.634 1.47137ZM12.7341 3.13023L12.109 3.54474C12.248 3.75426 12.4827 3.88023 12.7341 3.88023V3.13023ZM10.4195 9.02832C10.4195 9.92081 9.7009 10.6376 8.82273 10.6376V12.1376C10.5368 12.1376 11.9195 10.7418 11.9195 9.02832H10.4195ZM8.82273 10.6376C7.94455 10.6376 7.22591 9.92081 7.22591 9.02832H5.72591C5.72591 10.7418 7.10867 12.1376 8.82273 12.1376V10.6376ZM7.22591 9.02832C7.22591 8.13583 7.94455 7.41908 8.82273 7.41908V5.91908C7.10867 5.91908 5.72591 7.31487 5.72591 9.02832H7.22591ZM8.82273 7.41908C9.7009 7.41908 10.4195 8.13583 10.4195 9.02832H11.9195C11.9195 7.31487 10.5368 5.91908 8.82273 5.91908V7.41908ZM5.53641 3.54474L6.6365 1.88588L5.3864 1.05687L4.28631 2.71573L5.53641 3.54474ZM7.31323 1.521H10.3322V0.0209961H7.31323V1.521ZM11.009 1.88588L12.109 3.54474L13.3591 2.71573L12.2591 1.05687L11.009 1.88588ZM10.3322 1.521C10.6028 1.521 10.8571 1.65692 11.009 1.88588L12.2591 1.05687C11.8306 0.410715 11.1079 0.0209961 10.3322 0.0209961V1.521ZM6.6365 1.88588C6.78833 1.65692 7.04264 1.521 7.31323 1.521V0.0209961C6.53759 0.0209961 5.8149 0.410715 5.3864 1.05687L6.6365 1.88588ZM15.8955 6.27588V11.7808H17.3955V6.27588H15.8955ZM13.5164 14.1764H4.12909V15.6764H13.5164V14.1764ZM1.75 11.7808V6.27588H0.25V11.7808H1.75ZM4.12909 14.1764C2.81888 14.1764 1.75 13.1076 1.75 11.7808H0.25C0.25 13.9285 1.983 15.6764 4.12909 15.6764V14.1764ZM15.8955 11.7808C15.8955 13.1076 14.8266 14.1764 13.5164 14.1764V15.6764C15.6624 15.6764 17.3955 13.9285 17.3955 11.7808H15.8955ZM13.5164 3.88023C14.8266 3.88023 15.8955 4.94906 15.8955 6.27588H17.3955C17.3955 4.12811 15.6624 2.38023 13.5164 2.38023V3.88023ZM4.12909 2.38023C1.983 2.38023 0.25 4.12811 0.25 6.27588H1.75C1.75 4.94906 2.81888 3.88023 4.12909 3.88023V2.38023ZM4.12909 3.88023H4.91136V2.38023H4.12909V3.88023ZM13.5164 2.38023H12.7341V3.88023H13.5164V2.38023Z" fill="#797C7B"/>
<circle cx="8.4501" cy="3.00601" r="0.745022" fill="#797C7B"/>
</svg>
