<svg width="14" height="12" viewBox="0 0 14 12" fill="none" xmlns="http://www.w3.org/2000/svg">
<path d="M3.15168 1.6447C3.09923 1.59808 3.03697 1.5611 2.96844 1.53587C2.89992 1.51064 2.82647 1.49765 2.7523 1.49765C2.67813 1.49765 2.60469 1.51064 2.53616 1.53587C2.46764 1.5611 2.40537 1.59808 2.35293 1.6447C2.24701 1.73885 2.1875 1.86655 2.1875 1.9997C2.1875 2.13285 2.24701 2.26054 2.35293 2.3547L5.5198 5.16969C5.31944 5.501 5.24451 5.88088 5.3061 6.25302C5.3677 6.62516 5.56255 6.96975 5.86177 7.23573C6.16099 7.5017 6.54866 7.6749 6.96731 7.72965C7.38597 7.7844 7.81333 7.71779 8.18605 7.53969L11.3529 10.3547C11.4052 10.4016 11.4674 10.4388 11.536 10.4641C11.6045 10.4895 11.678 10.5026 11.7523 10.5026C11.8266 10.5026 11.9001 10.4895 11.9686 10.4641C12.0372 10.4388 12.0994 10.4016 12.1517 10.3547C12.2044 10.3082 12.2462 10.2529 12.2748 10.192C12.3034 10.1311 12.3181 10.0657 12.3181 9.99969C12.3181 9.93369 12.3034 9.86833 12.2748 9.8074C12.2462 9.74648 12.2044 9.69118 12.1517 9.64469L3.15168 1.6447ZM7.2523 6.74969C7.02853 6.74969 6.81391 6.67068 6.65568 6.53003C6.49745 6.38937 6.40855 6.19861 6.40855 5.99969V5.96469L7.28605 6.74469L7.2523 6.74969Z" fill="#F8F8F8"/>
<path d="M7.37562 8.49975C4.95687 8.54975 3.37062 6.70475 2.87562 5.99975C3.22801 5.5001 3.65151 5.04298 4.13562 4.63975L3.31437 3.93475C2.67949 4.46649 2.1356 5.07797 1.69999 5.74975C1.65062 5.82576 1.62463 5.91198 1.62463 5.99975C1.62463 6.08752 1.65062 6.17374 1.69999 6.24975C2.05437 6.79475 3.95 9.49975 7.26312 9.49975H7.40375C8.02674 9.48332 8.64167 9.36994 9.22062 9.16475L8.33187 8.37475C8.01933 8.44784 7.6986 8.48976 7.37562 8.49975ZM12.8037 5.74975C12.4437 5.19475 10.4581 2.40975 7.1 2.49975C6.477 2.51618 5.86207 2.62956 5.28312 2.83475L6.17187 3.62475C6.48441 3.55167 6.80514 3.50974 7.12812 3.49975C9.54125 3.44475 11.1275 5.29475 11.6281 5.99975C11.267 6.5009 10.834 6.95808 10.34 7.35975L11.1894 8.06475C11.8322 7.53441 12.3838 6.92286 12.8262 6.24975C12.8722 6.172 12.8944 6.08485 12.8904 5.99707C12.8865 5.90929 12.8566 5.82399 12.8037 5.74975Z" fill="#F8F8F8"/>
</svg>
