<svg width="56" height="55" viewBox="0 0 56 55" fill="none" xmlns="http://www.w3.org/2000/svg">
<rect x="1" y="0.5" width="54" height="54" rx="27" fill="#FFC491" fill-opacity="0.13"/>
<rect x="1" y="0.5" width="54" height="54" rx="27" stroke="#FFC491"/>
<g clip-path="url(#clip0_527_829)">
<path d="M25.9128 29.8567L25.0646 30.8146C24.409 31.4701 23.5738 31.9166 22.6645 32.0974C21.7552 32.2783 20.8127 32.1855 19.9562 31.8307C19.0996 31.4759 18.3676 30.8751 17.8525 30.1042C17.3374 29.3334 17.0625 28.4271 17.0625 27.5C17.0625 26.5729 17.3374 25.6666 17.8525 24.8958C18.3676 24.1249 19.0996 23.5241 19.9562 23.1693C20.8127 22.8145 21.7552 22.7217 22.6645 22.9026C23.5738 23.0834 24.409 23.5299 25.0646 24.1854L30.9354 30.8146C31.591 31.4701 32.4262 31.9166 33.3355 32.0974C34.2448 32.2783 35.1873 32.1855 36.0438 31.8307C36.9004 31.4759 37.6324 30.8751 38.1475 30.1042C38.6626 29.3334 38.9375 28.4271 38.9375 27.5C38.9375 26.5729 38.6626 25.6666 38.1475 24.8958C37.6324 24.1249 36.9004 23.5241 36.0438 23.1693C35.1873 22.8145 34.2448 22.7217 33.3355 22.9026C32.4262 23.0834 31.591 23.5299 30.9354 24.1854L30.0872 25.1433" stroke="#FFC491" stroke-width="2" stroke-linecap="round" stroke-linejoin="round"/>
</g>
<defs>
<clipPath id="clip0_527_829">
<rect width="25" height="25" fill="white" transform="translate(15.5 15)"/>
</clipPath>
</defs>
</svg>
