<svg width="22" height="26" viewBox="0 0 22 26" fill="none" xmlns="http://www.w3.org/2000/svg">
<path d="M15.08 24.6455H6.17C4.355 24.6455 2.925 23.1417 2.925 21.3595V11.2785C2.925 10.9443 3.145 10.7215 3.475 10.7215C3.805 10.7215 4.025 10.9443 4.025 11.2785V21.3595C4.025 22.5848 5.015 23.5316 6.17 23.5316H15.08C16.29 23.5316 17.225 22.5291 17.225 21.3595V11.2785C17.225 10.9443 17.445 10.7215 17.775 10.7215C18.105 10.7215 18.325 10.9443 18.325 11.2785V21.3595C18.325 23.1417 16.84 24.6455 15.08 24.6455ZM17.995 5.09618H13.815C13.54 3.53669 12.22 2.36707 10.625 2.36707C9.03 2.36707 7.71 3.53669 7.435 5.09618H3.255C1.99 5.09618 1 6.09871 1 7.37972C1 8.66074 1.99 9.60757 3.255 9.60757H18.05C19.315 9.60757 20.305 8.60504 20.305 7.32403C20.305 6.04301 19.26 5.09618 17.995 5.09618ZM10.625 3.48099C11.615 3.48099 12.44 4.14934 12.66 5.09618H8.535C8.81 4.14934 9.635 3.48099 10.625 3.48099ZM17.995 8.49365H3.255C2.65 8.49365 2.1 7.99238 2.1 7.32403C2.1 6.71137 2.595 6.15441 3.255 6.15441H18.05C18.655 6.15441 19.205 6.65567 19.205 7.32403C19.15 7.99238 18.655 8.49365 17.995 8.49365Z" fill="#2C2C2C"/>
<path d="M6.7751 21.9164C6.4451 21.9164 6.2251 21.6936 6.2251 21.3594V12.0582C6.2251 11.724 6.4451 11.5012 6.7751 11.5012C7.1051 11.5012 7.3251 11.724 7.3251 12.0582V21.3594C7.3251 21.6379 7.0501 21.9164 6.7751 21.9164ZM14.4751 21.9164C14.1451 21.9164 13.9251 21.6936 13.9251 21.3594V12.0582C13.9251 11.724 14.1451 11.5012 14.4751 11.5012C14.8051 11.5012 15.0251 11.724 15.0251 12.0582V21.3594C15.0251 21.6379 14.7501 21.9164 14.4751 21.9164ZM10.6251 21.9164C10.2951 21.9164 10.0751 21.6936 10.0751 21.3594V12.0582C10.0751 11.724 10.2951 11.5012 10.6251 11.5012C10.9551 11.5012 11.1751 11.724 11.1751 12.0582V21.3594C11.1751 21.6379 10.9001 21.9164 10.6251 21.9164Z" fill="#2C2C2C"/>
</svg>
