<svg width="12" height="7" viewBox="0 0 12 7" fill="none" xmlns="http://www.w3.org/2000/svg">
<path d="M0.323954 0.327981L0.32396 0.327987L0.324962 0.326945C0.582894 0.0586171 1.01334 0.0586333 1.27114 0.321352L5.9075 5.04615L5.99666 5.13701L6.08588 5.04621L10.7222 0.32793L10.7223 0.327868C10.9866 0.0584717 11.4114 0.0584717 11.6758 0.327868C11.9414 0.598582 11.9414 1.03556 11.6758 1.30627L6.36154 6.72187L6.36145 6.72196C6.31379 6.77063 6.2573 6.80911 6.19529 6.83533C6.13329 6.86154 6.0669 6.875 5.99992 6.875C5.93293 6.875 5.86654 6.86154 5.80454 6.83533C5.74253 6.80911 5.68604 6.77063 5.63838 6.72196L5.63829 6.72187L0.324065 1.30627L0.323954 1.30616C0.261037 1.2422 0.210997 1.1661 0.176812 1.08215C0.142626 0.99819 0.125 0.908105 0.125 0.817071C0.125 0.726037 0.142626 0.635951 0.176812 0.551993C0.210997 0.46804 0.261037 0.391936 0.323954 0.327981Z" fill="white" stroke="#2C2C2C" stroke-width="0.25"/>
</svg>
