<svg width="24" height="24" viewBox="0 0 24 24" fill="none" xmlns="http://www.w3.org/2000/svg">
<g clip-path="url(#clip0_144_3653)">
<path d="M17.7365 6.25225C16.2656 4.78417 14.2367 3.875 12 3.875C7.52096 3.875 3.875 7.52096 3.875 12C3.875 14.2367 4.78417 16.2656 6.25225 17.7365L6.2425 17.7575L6.26348 17.7478C7.7344 19.2158 9.76333 20.125 12 20.125C16.479 20.125 20.125 16.479 20.125 12C20.125 9.76333 19.2158 7.7344 17.7478 6.26348L17.7575 6.2425L17.7365 6.25225ZM2.125 12C2.125 6.54904 6.54904 2.125 12 2.125C17.451 2.125 21.875 6.54904 21.875 12C21.875 17.451 17.451 21.875 12 21.875C6.54904 21.875 2.125 17.451 2.125 12ZM13.9159 13.9159L6.7575 17.2425L10.0841 10.0841L17.2425 6.7575L13.9159 13.9159ZM13.225 12C13.225 11.321 12.679 10.775 12 10.775C11.321 10.775 10.775 11.321 10.775 12C10.775 12.679 11.321 13.225 12 13.225C12.679 13.225 13.225 12.679 13.225 12Z" fill="#A7A7A7" stroke="#2F2F2F" stroke-width="0.25"/>
</g>
<defs>
<clipPath id="clip0_144_3653">
<rect width="24" height="24" fill="white"/>
</clipPath>
</defs>
</svg>
