<svg width="20" height="20" viewBox="0 0 20 20" fill="none" xmlns="http://www.w3.org/2000/svg">
<path d="M11.3333 7.33333H2.66667C2.48986 7.33333 2.32029 7.2631 2.19526 7.13807C2.07024 7.01305 2 6.84348 2 6.66667C2 6.48986 2.07024 6.32029 2.19526 6.19526C2.32029 6.07024 2.48986 6 2.66667 6H11.3333C11.5101 6 11.6797 6.07024 11.8047 6.19526C11.9298 6.32029 12 6.48986 12 6.66667C12 6.84348 11.9298 7.01305 11.8047 7.13807C11.6797 7.2631 11.5101 7.33333 11.3333 7.33333ZM17.3333 7.33333H14.6667C14.4899 7.33333 14.3203 7.2631 14.1953 7.13807C14.0702 7.01305 14 6.84348 14 6.66667C14 6.48986 14.0702 6.32029 14.1953 6.19526C14.3203 6.07024 14.4899 6 14.6667 6H17.3333C17.5101 6 17.6797 6.07024 17.8047 6.19526C17.9298 6.32029 18 6.48986 18 6.66667C18 6.84348 17.9298 7.01305 17.8047 7.13807C17.6797 7.2631 17.5101 7.33333 17.3333 7.33333Z" fill="#323232"/>
<path d="M13 9.00016C12.5385 9.00016 12.0874 8.86332 11.7037 8.60693C11.32 8.35054 11.0209 7.98612 10.8443 7.55976C10.6677 7.1334 10.6215 6.66424 10.7115 6.21162C10.8015 5.759 11.0238 5.34324 11.3501 5.01691C11.6764 4.69059 12.0922 4.46836 12.5448 4.37833C12.9974 4.2883 13.4666 4.33451 13.8929 4.51111C14.3193 4.68772 14.6837 4.98678 14.9401 5.3705C15.1965 5.75421 15.3333 6.20534 15.3333 6.66683C15.3333 7.28567 15.0875 7.87916 14.6499 8.31675C14.2123 8.75433 13.6188 9.00016 13 9.00016ZM13 5.66683C12.8022 5.66683 12.6089 5.72548 12.4444 5.83536C12.28 5.94524 12.1518 6.10142 12.0761 6.28415C12.0004 6.46687 11.9806 6.66794 12.0192 6.86192C12.0578 7.0559 12.153 7.23408 12.2929 7.37394C12.4327 7.51379 12.6109 7.60903 12.8049 7.64762C12.9989 7.6862 13.2 7.6664 13.3827 7.59071C13.5654 7.51502 13.7216 7.38685 13.8315 7.2224C13.9414 7.05795 14 6.86461 14 6.66683C14 6.40161 13.8946 6.14726 13.7071 5.95972C13.5196 5.77219 13.2652 5.66683 13 5.66683ZM17.3333 14.0002H8.66667C8.48986 14.0002 8.32029 13.9299 8.19526 13.8049C8.07024 13.6799 8 13.5103 8 13.3335C8 13.1567 8.07024 12.9871 8.19526 12.8621C8.32029 12.7371 8.48986 12.6668 8.66667 12.6668H17.3333C17.5101 12.6668 17.6797 12.7371 17.8047 12.8621C17.9298 12.9871 18 13.1567 18 13.3335C18 13.5103 17.9298 13.6799 17.8047 13.8049C17.6797 13.9299 17.5101 14.0002 17.3333 14.0002ZM5.33333 14.0002H2.66667C2.48986 14.0002 2.32029 13.9299 2.19526 13.8049C2.07024 13.6799 2 13.5103 2 13.3335C2 13.1567 2.07024 12.9871 2.19526 12.8621C2.32029 12.7371 2.48986 12.6668 2.66667 12.6668H5.33333C5.51014 12.6668 5.67971 12.7371 5.80474 12.8621C5.92976 12.9871 6 13.1567 6 13.3335C6 13.5103 5.92976 13.6799 5.80474 13.8049C5.67971 13.9299 5.51014 14.0002 5.33333 14.0002Z" fill="#323232"/>
<path d="M6.99996 15.6667C6.53847 15.6667 6.08734 15.5298 5.70363 15.2734C5.31991 15.017 5.02085 14.6526 4.84424 14.2263C4.66764 13.7999 4.62143 13.3307 4.71146 12.8781C4.80149 12.4255 5.02372 12.0097 5.35004 11.6834C5.67637 11.3571 6.09213 11.1349 6.54475 11.0448C6.99737 10.9548 7.46653 11.001 7.89289 11.1776C8.31925 11.3542 8.68367 11.6533 8.94006 12.037C9.19645 12.4207 9.33329 12.8718 9.33329 13.3333C9.33329 13.9522 9.08746 14.5457 8.64988 14.9833C8.21229 15.4208 7.6188 15.6667 6.99996 15.6667ZM6.99996 12.3333C6.80218 12.3333 6.60884 12.392 6.44439 12.5019C6.27994 12.6117 6.15177 12.7679 6.07608 12.9507C6.00039 13.1334 5.98059 13.3344 6.01917 13.5284C6.05776 13.7224 6.153 13.9006 6.29285 14.0404C6.43271 14.1803 6.61089 14.2755 6.80487 14.3141C6.99885 14.3527 7.19992 14.3329 7.38264 14.2572C7.56537 14.1815 7.72155 14.0534 7.83143 13.8889C7.94131 13.7245 7.99996 13.5311 7.99996 13.3333C7.99996 13.0681 7.8946 12.8138 7.70707 12.6262C7.51953 12.4387 7.26518 12.3333 6.99996 12.3333Z" fill="#323232"/>
</svg>
