<svg width="24" height="24" viewBox="0 0 24 24" fill="none" xmlns="http://www.w3.org/2000/svg">
<mask id="mask0_16_3177" style="mask-type:luminance" maskUnits="userSpaceOnUse" x="0" y="0" width="24" height="24">
<path d="M0 0.253481H23.4929V23.7463H0V0.253481Z" fill="white"/>
</mask>
<g mask="url(#mask0_16_3177)">
<path d="M22.2565 11.9998C22.2565 17.8044 17.5511 22.5098 11.7465 22.5098C5.94194 22.5098 1.23657 17.8044 1.23657 11.9998C1.23657 6.19521 5.94194 1.48984 11.7465 1.48984C17.5511 1.48984 22.2565 6.19521 22.2565 11.9998Z" fill="#FFCC4D"/>
<path d="M11.7464 13.8545C9.50651 13.8545 8.02027 13.5936 6.18227 13.2363C5.76249 13.1553 4.9458 13.2363 4.9458 14.4728C4.9458 16.9457 7.78658 20.0369 11.7464 20.0369C15.7055 20.0369 18.5469 16.9457 18.5469 14.4728C18.5469 13.2363 17.7302 13.1547 17.3105 13.2363C15.4725 13.5936 13.9862 13.8545 11.7464 13.8545Z" fill="#664500"/>
<path d="M6.80078 8.90866C6.80078 8.90866 6.80078 7.67219 8.03725 7.67219C9.27371 7.67219 9.27371 8.90866 9.27371 8.90866V10.1451C9.27371 10.1451 9.27371 11.3816 8.03725 11.3816C6.80078 11.3816 6.80078 10.1451 6.80078 10.1451V8.90866Z" fill="#664500"/>
<path d="M14.2195 8.90866C14.2195 8.90866 14.2195 7.67219 15.4559 7.67219C16.6924 7.67219 16.6924 8.90866 16.6924 8.90866V10.1451C16.6924 10.1451 16.6924 11.3816 15.4559 11.3816C14.2195 11.3816 14.2195 10.1451 14.2195 10.1451V8.90866Z" fill="#664500"/>
<path d="M6.18237 14.4726C6.18237 14.4726 8.03707 15.0909 11.7465 15.0909C15.4559 15.0909 17.3106 14.4726 17.3106 14.4726C17.3106 14.4726 16.0741 16.9456 11.7465 16.9456C7.41884 16.9456 6.18237 14.4726 6.18237 14.4726Z" fill="white"/>
</g>
</svg>
