<svg width="16" height="16" viewBox="0 0 16 16" fill="none" xmlns="http://www.w3.org/2000/svg">
<path d="M8.32751 2.08105C7.00189 2.08254 5.73098 2.60981 4.79362 3.54717C3.85627 4.48452 3.329 5.75543 3.32751 7.08105C3.32751 9.11543 4.80439 10.8048 6.36876 12.5929C6.86376 13.1592 7.37626 13.7448 7.83251 14.3373C7.8909 14.413 7.96589 14.4744 8.05171 14.5166C8.13752 14.5588 8.23188 14.5807 8.32751 14.5807C8.42315 14.5807 8.51751 14.5588 8.60332 14.5166C8.68914 14.4744 8.76413 14.413 8.82251 14.3373C9.27876 13.7448 9.79126 13.1592 10.2863 12.5929C11.8506 10.8048 13.3275 9.11543 13.3275 7.08105C13.326 5.75543 12.7988 4.48452 11.8614 3.54717C10.924 2.60981 9.65314 2.08254 8.32751 2.08105ZM8.32751 8.95605C7.95667 8.95605 7.59416 8.84609 7.28582 8.64006C6.97748 8.43403 6.73715 8.1412 6.59524 7.79859C6.45333 7.45597 6.41619 7.07897 6.48854 6.71526C6.56089 6.35155 6.73947 6.01745 7.00169 5.75523C7.26391 5.49301 7.59801 5.31443 7.96172 5.24208C8.32543 5.16974 8.70243 5.20687 9.04505 5.34878C9.38766 5.49069 9.68049 5.73102 9.88652 6.03936C10.0925 6.3477 10.2025 6.71021 10.2025 7.08105C10.2025 7.57834 10.005 8.05525 9.65334 8.40688C9.30171 8.75851 8.8248 8.95605 8.32751 8.95605Z" fill="#DBB281"/>
</svg>
