<svg width="12" height="12" viewBox="0 0 12 12" fill="none" xmlns="http://www.w3.org/2000/svg">
<path d="M9.43945 4.2V3C9.43945 1.32 7.92695 0 6.00195 0C4.07695 0 2.56445 1.32 2.56445 3V4.2C1.3957 4.2 0.501953 4.98 0.501953 6V10.2C0.501953 11.22 1.3957 12 2.56445 12H9.43945C10.6082 12 11.502 11.22 11.502 10.2V6C11.502 4.98 10.6082 4.2 9.43945 4.2ZM3.93945 3C3.93945 1.98 4.8332 1.2 6.00195 1.2C7.1707 1.2 8.06445 1.98 8.06445 3V4.2H3.93945V3ZM6.68945 9C6.68945 9.36 6.41445 9.6 6.00195 9.6C5.58945 9.6 5.31445 9.36 5.31445 9V7.2C5.31445 6.84 5.58945 6.6 6.00195 6.6C6.41445 6.6 6.68945 6.84 6.68945 7.2V9Z" fill="#F8F8F8"/>
</svg>
