<svg width="24" height="12" viewBox="0 0 24 12" fill="none" xmlns="http://www.w3.org/2000/svg">
<path d="M9.99633 8.26246L9.18198 9.18198C8.55264 9.81132 7.75082 10.2399 6.87791 10.4135C6.00499 10.5872 5.10019 10.4981 4.27792 10.1575C3.45566 9.81687 2.75285 9.24009 2.25839 8.50007C1.76392 7.76005 1.5 6.89002 1.5 6C1.5 5.10999 1.76392 4.23996 2.25839 3.49994C2.75285 2.75991 3.45566 2.18314 4.27792 1.84254C5.10019 1.50195 6.00499 1.41283 6.87791 1.58647C7.75082 1.7601 8.55264 2.18868 9.18198 2.81802L14.818 9.18198C15.4474 9.81132 16.2492 10.2399 17.1221 10.4135C17.995 10.5872 18.8998 10.4981 19.7221 10.1575C20.5443 9.81687 21.2471 9.24009 21.7416 8.50007C22.2361 7.76005 22.5 6.89002 22.5 6C22.5 5.10999 22.2361 4.23996 21.7416 3.49994C21.2471 2.75991 20.5443 2.18314 19.7221 1.84254C18.8998 1.50195 17.995 1.41283 17.1221 1.58647C16.2492 1.7601 15.4474 2.18868 14.818 2.81802L14.0037 3.73754" stroke="#A7A7A7" stroke-width="1.25" stroke-linecap="round" stroke-linejoin="round"/>
</svg>
