<svg width="24" height="24" viewBox="0 0 24 24" fill="none" xmlns="http://www.w3.org/2000/svg">
<rect width="24" height="24" rx="12" fill="#FFC491"/>
<g clip-path="url(#clip0_141_3228)">
<path d="M10.6642 13.5083L10.1213 14.1213C9.70176 14.5409 9.16721 14.8266 8.58527 14.9424C8.00333 15.0581 7.40013 14.9987 6.85195 14.7716C6.30377 14.5446 5.83524 14.1601 5.50559 13.6667C5.17595 13.1734 5 12.5933 5 12C5 11.4067 5.17595 10.8266 5.50559 10.3333C5.83524 9.83994 6.30377 9.45543 6.85195 9.22836C7.40013 9.0013 8.00333 8.94189 8.58527 9.05765C9.16721 9.1734 9.70176 9.45912 10.1213 9.87868L13.8787 14.1213C14.2982 14.5409 14.8328 14.8266 15.4147 14.9424C15.9967 15.0581 16.5999 14.9987 17.148 14.7716C17.6962 14.5446 18.1648 14.1601 18.4944 13.6667C18.8241 13.1734 19 12.5933 19 12C19 11.4067 18.8241 10.8266 18.4944 10.3333C18.1648 9.83994 17.6962 9.45543 17.148 9.22836C16.5999 9.0013 15.9967 8.94189 15.4147 9.05765C14.8328 9.1734 14.2982 9.45912 13.8787 9.87868L13.3358 10.4917" stroke="#2C2C2C" stroke-width="1.25" stroke-linecap="round" stroke-linejoin="round"/>
</g>
<defs>
<clipPath id="clip0_141_3228">
<rect width="16" height="16" fill="white" transform="translate(4 4)"/>
</clipPath>
</defs>
</svg>
