<svg width="16" height="16" viewBox="0 0 16 16" fill="none" xmlns="http://www.w3.org/2000/svg">
<g clip-path="url(#clip0_678_5196)">
<path d="M11.2032 0H4.79675C4.37325 0 3.9671 0.168234 3.66764 0.467692C3.36818 0.76715 3.19995 1.1733 3.19995 1.5968V14.4024C3.19995 15.2848 3.91515 16 4.79675 16H11.2024C11.6259 16 12.0322 15.8318 12.3317 15.5324C12.6313 15.2329 12.7997 14.8268 12.8 14.4032V1.5968C12.8 1.1733 12.6317 0.76715 12.3323 0.467692C12.0328 0.168234 11.6266 0 11.2032 0ZM7.99995 15.2C7.44795 15.2 6.99995 14.8424 6.99995 14.4C6.99995 13.9576 7.44795 13.6 7.99995 13.6C8.55195 13.6 8.99995 13.9576 8.99995 14.4C8.99995 14.8424 8.55195 15.2 7.99995 15.2ZM11.2 12.8H4.79995V1.6H11.2V12.8Z" fill="#F8F8F8"/>
</g>
<defs>
<clipPath id="clip0_678_5196">
<rect width="16" height="16" fill="white"/>
</clipPath>
</defs>
</svg>
