<svg width="11" height="11" viewBox="0 0 11 11" fill="none" xmlns="http://www.w3.org/2000/svg">
<path d="M9.25808 4.183L7.09155 2.0498L4.38325 4.71644L6.54978 6.84964L9.25808 4.183Z" fill="#636363"/>
<path d="M10.2531 3.14969L8.14053 1.06966C7.84893 0.782551 7.37619 0.782525 7.08459 1.06964C6.79299 1.35675 6.79295 1.82229 7.08455 2.1094L9.19708 4.18943C9.48867 4.47654 9.96149 4.47651 10.2531 4.18939C10.5447 3.90228 10.5447 3.4368 10.2531 3.14969Z" fill="#636363"/>
<path d="M3.91586 6.26953L4.9721 7.30957L1.27523 10.9495H0.218994L0.218994 9.90957L3.91586 6.26953Z" fill="white"/>
<path d="M7.20705 7.43003L3.79437 4.06986C3.57004 3.84898 3.20631 3.849 2.98198 4.06988L2.73841 4.3097C2.51408 4.53058 2.51406 4.88872 2.73839 5.1096L6.15107 8.46977C6.3754 8.69065 6.73913 8.69063 6.96346 8.46975L7.20703 8.22993C7.43136 8.00905 7.43138 7.65092 7.20705 7.43003Z" fill="white"/>
</svg>
