<svg width="20" height="24" viewBox="0 0 20 24" fill="none" xmlns="http://www.w3.org/2000/svg">
<path d="M13.7131 11.1903H6.28805C5.79997 11.1903 5.4043 11.586 5.4043 12.0741V12.604C5.4043 13.0921 5.79997 13.4878 6.28805 13.4878H13.7131C14.2011 13.4878 14.5968 13.0921 14.5968 12.604V12.0741C14.5968 11.586 14.2011 11.1903 13.7131 11.1903Z" stroke="#FFC491" stroke-width="0.5"/>
<path d="M12.3568 5.37146H7.64307V11.2639H12.3568V5.37146Z" stroke="#FFC491" stroke-width="0.5"/>
<path d="M12.2977 3.14783H7.70147C7.06704 3.14783 6.55273 3.66207 6.55273 4.29651C6.55273 4.93095 7.06704 5.44534 7.70147 5.44534H12.2977C12.9322 5.44534 13.4465 4.93095 13.4465 4.29651C13.4465 3.66207 12.9322 3.14783 12.2977 3.14783Z" stroke="#FFC491" stroke-width="0.5"/>
<path d="M8.85076 13.4888L11.1489 13.4889L11.1488 21.5322L9.9998 22.6812L8.85081 21.5322L8.85076 13.4888Z" stroke="#FFC491" stroke-width="0.5"/>
</svg>
