<svg width="14" height="14" viewBox="0 0 14 14" fill="none" xmlns="http://www.w3.org/2000/svg">
<path d="M3.76923 3.23077C3.76923 2.59178 3.95871 1.96715 4.31371 1.43585C4.66872 0.904554 5.17329 0.490458 5.76364 0.245929C6.35398 0.00139984 7.00358 -0.0625802 7.63029 0.0620798C8.257 0.18674 8.83267 0.494441 9.2845 0.946272C9.73633 1.3981 10.044 1.97377 10.1687 2.60048C10.2934 3.22719 10.2294 3.87679 9.98484 4.46713C9.74031 5.05748 9.32622 5.56206 8.79492 5.91706C8.26362 6.27206 7.63899 6.46154 7 6.46154C6.14315 6.46154 5.32139 6.12116 4.7155 5.51527C4.10961 4.90938 3.76923 4.08762 3.76923 3.23077ZM12.3846 14H1.61538C1.18696 14 0.776079 13.8298 0.473135 13.5269C0.170192 13.2239 0 12.813 0 12.3846C0 11.0993 0.510575 9.8667 1.41941 8.95787C2.32824 8.04904 3.56087 7.53846 4.84615 7.53846H9.15385C10.4391 7.53846 11.6718 8.04904 12.5806 8.95787C13.4894 9.8667 14 11.0993 14 12.3846C14 12.813 13.8298 13.2239 13.5269 13.5269C13.2239 13.8298 12.813 14 12.3846 14Z" fill="#F8F8F8"/>
</svg>
