<svg width="18" height="18" viewBox="0 0 18 18" fill="none" xmlns="http://www.w3.org/2000/svg">
<path d="M9.72908 15.4928H6.21411C4.27285 15.4928 2.69914 13.919 2.69914 11.9778V6.35384C2.69914 4.41257 4.27285 2.83887 6.21411 2.83887L11.8381 2.83887C13.7793 2.83887 15.353 4.41257 15.353 6.35384V9.8688" stroke="#FFC491" stroke-width="0.75" stroke-linecap="round" stroke-linejoin="round"/>
<path d="M10.8158 7.37533C11.8039 8.36374 11.8038 9.96599 10.8154 10.9542C9.82714 11.9424 8.22489 11.9424 7.23658 10.9542C6.24828 9.96599 6.2481 8.36374 7.23619 7.37533C7.71083 6.90054 8.35467 6.63379 9.02602 6.63379C9.69736 6.63379 10.3412 6.90054 10.8158 7.37533" stroke="#FFC491" stroke-width="0.75" stroke-linecap="round" stroke-linejoin="round"/>
<path d="M12.5411 14.4335H16.0561" stroke="#FFC491" stroke-width="0.75" stroke-linecap="round" stroke-linejoin="round"/>
<path d="M14.2985 16.1907V12.6758" stroke="#FFC491" stroke-width="0.75" stroke-linecap="round" stroke-linejoin="round"/>
</svg>
