<svg width="23" height="23" viewBox="0 0 23 23" fill="none" xmlns="http://www.w3.org/2000/svg">
<path d="M11.5602 16.6966L11.4998 16.6634L11.4395 16.6966L5.45014 19.9961C5.45009 19.9961 5.45003 19.9962 5.44998 19.9962C5.27676 20.0911 5.05833 20.0317 4.96228 19.8716C4.93224 19.8214 4.9166 19.7651 4.9165 19.7082V4.58333C4.91821 3.13933 6.14319 1.95986 7.66664 1.95825L15.3331 1.95825C16.8565 1.9599 18.0815 3.13939 18.0832 4.5834V19.708C18.0828 19.8869 17.9298 20.0411 17.7291 20.0416C17.6658 20.0414 17.6039 20.0256 17.5494 19.996C17.5493 19.996 17.5492 19.9959 17.5491 19.9959L11.5602 16.6966ZM17.1895 19.0246L17.3748 19.1267V18.9151V4.58325V4.58309C17.3734 3.49701 16.455 2.62628 15.3333 2.62492H15.3332L7.6665 2.62492L7.66635 2.62492C6.54471 2.62628 5.62628 3.49701 5.62484 4.58309V4.58325V18.9151V19.1267L5.81015 19.0246L11.3199 15.9894C11.32 15.9893 11.3201 15.9893 11.3202 15.9892C11.3747 15.9597 11.4366 15.9439 11.4998 15.9437C11.5631 15.9439 11.6249 15.9597 11.6794 15.9892C11.6795 15.9893 11.6797 15.9893 11.6798 15.9894L17.1895 19.0246Z" fill="#2C2C2C" stroke="#2C2C2C" stroke-width="0.25"/>
<path d="M3.67668 0.402724C3.82385 0.303798 4.02403 0.339123 4.12476 0.476225L19.8078 21.8228C19.9086 21.9599 19.8755 22.152 19.7283 22.2509C19.5812 22.3499 19.381 22.3145 19.2803 22.1774L3.59716 0.830872C3.49644 0.693769 3.52951 0.50165 3.67668 0.402724Z" fill="#2C2C2C" stroke="#2C2C2C" stroke-width="0.25" stroke-linecap="round"/>
</svg>
