<svg width="16" height="17" viewBox="0 0 16 17" fill="none" xmlns="http://www.w3.org/2000/svg">
<path d="M8.06023 12.5456L7.99992 12.5124L7.9396 12.5456L3.77314 14.8409C3.77309 14.841 3.77304 14.841 3.77299 14.841C3.66975 14.8975 3.54059 14.8613 3.48468 14.7681C3.46728 14.739 3.45831 14.7066 3.45825 14.6739V4.15238C3.45943 3.17041 4.29297 2.36536 5.33338 2.36426L10.6665 2.36426C11.7069 2.36539 12.5405 3.17047 12.5416 4.15245V14.6738C12.5414 14.7757 12.4536 14.8675 12.3334 14.8679C12.2956 14.8677 12.2588 14.8583 12.2265 14.8408C12.2264 14.8408 12.2263 14.8407 12.2262 14.8407L8.06023 12.5456Z" fill="#FFC491" stroke="#FFC491" stroke-width="0.25"/>
</svg>
