<svg width="24" height="24" viewBox="0 0 24 24" fill="none" xmlns="http://www.w3.org/2000/svg">
<rect width="24" height="24" rx="12" fill="#FFC491"/>
<path fill-rule="evenodd" clip-rule="evenodd" d="M16.9033 7.49902C16.8376 7.49978 16.7724 7.48759 16.7114 7.46312C16.6504 7.43865 16.5948 7.40241 16.5479 7.35645C15.3329 6.16638 13.7007 5.5 12 5.5C10.3046 5.5 8.6769 6.16223 7.46289 7.3457C7.36796 7.43829 7.24014 7.48938 7.10755 7.48773C6.97496 7.48608 6.84845 7.43182 6.75586 7.3369C6.66327 7.24197 6.61218 7.11416 6.61383 6.98157C6.61548 6.84898 6.66974 6.72246 6.76466 6.62987C8.16512 5.26462 10.0441 4.5 12 4.5C13.962 4.5 15.8464 5.26873 17.248 6.6416C17.3427 6.73446 17.3966 6.86111 17.3979 6.9937C17.3992 7.12629 17.3477 7.25396 17.2549 7.34863C17.1623 7.44336 17.0358 7.49745 16.9033 7.49902ZM7 15.5C6.1775 15.5 5.5 14.8225 5.5 14V10C5.5 9.1775 6.1775 8.5 7 8.5H13.5C14.3225 8.5 15 9.1775 15 10V10.9131L17.2949 8.94531C17.741 8.563 18.5 8.91251 18.5 9.5V14.5C18.5 14.7937 18.31 15.0277 18.0645 15.1406C17.8189 15.2535 17.5179 15.2458 17.2949 15.0547L15 13.0869V14C15 14.8225 14.3225 15.5 13.5 15.5H7ZM12 19.5C10.0441 19.5 8.16514 18.7354 6.76465 17.3701C6.66973 17.2775 6.61548 17.151 6.61383 17.0184C6.61218 16.8858 6.66326 16.758 6.75585 16.6631C6.84844 16.5682 6.97495 16.5139 7.10754 16.5123C7.24014 16.5106 7.36795 16.5617 7.46288 16.6543C8.67692 17.8378 10.3046 18.5 12 18.5C13.7007 18.5 15.3329 17.8336 16.5479 16.6436C16.6426 16.5508 16.7704 16.4996 16.903 16.501C17.0356 16.5025 17.1622 16.5566 17.2549 16.6514C17.3477 16.746 17.3992 16.8737 17.3979 17.0063C17.3966 17.1389 17.3427 17.2655 17.248 17.3584C15.8464 18.7313 13.962 19.5 12 19.5Z" fill="#2C2C2C"/>
</svg>
