<svg width="56" height="55" viewBox="0 0 56 55" fill="none" xmlns="http://www.w3.org/2000/svg">
<rect x="1" y="0.5" width="54" height="54" rx="27" fill="#FFC491" fill-opacity="0.13"/>
<rect x="1" y="0.5" width="54" height="54" rx="27" stroke="#FFC491"/>
<path fill-rule="evenodd" clip-rule="evenodd" d="M35.6614 20.4672C35.5588 20.4684 35.4569 20.4494 35.3616 20.4111C35.2663 20.3729 35.1794 20.3163 35.106 20.2444C33.2076 18.385 30.6574 17.3438 28 17.3438C25.3509 17.3438 22.8077 18.3785 20.9108 20.2277C20.7624 20.3723 20.5627 20.4522 20.3555 20.4496C20.1484 20.447 19.9507 20.3622 19.806 20.2139C19.6614 20.0656 19.5815 19.8659 19.5841 19.6587C19.5867 19.4515 19.6715 19.2538 19.8198 19.1092C22.008 16.976 24.944 15.7812 28 15.7812C31.0656 15.7812 34.01 16.9824 36.2001 19.1275C36.348 19.2726 36.4322 19.4705 36.4342 19.6777C36.4362 19.8848 36.3558 20.0843 36.2108 20.2322C36.066 20.3803 35.8684 20.4648 35.6614 20.4672ZM20.1875 32.9688C18.9023 32.9688 17.8438 31.9102 17.8438 30.625V24.375C17.8438 23.0898 18.9023 22.0312 20.1875 22.0312H30.3438C31.6289 22.0312 32.6875 23.0898 32.6875 24.375V25.8017L36.2733 22.7271C36.9702 22.1297 38.1563 22.6758 38.1562 23.5938V31.4062C38.1563 31.8652 37.8593 32.2308 37.4757 32.4072C37.0921 32.5837 36.6218 32.5716 36.2733 32.2729L32.6875 29.1983V30.625C32.6875 31.9102 31.6289 32.9688 30.3438 32.9688H20.1875ZM28 39.2188C24.944 39.2188 22.008 38.0241 19.8198 35.8908C19.6714 35.7461 19.5867 35.5485 19.5841 35.3413C19.5815 35.1341 19.6614 34.9344 19.806 34.7861C19.9507 34.6378 20.1484 34.553 20.3555 34.5504C20.5627 34.5478 20.7624 34.6276 20.9107 34.7723C22.8077 36.6215 25.3509 37.6562 28 37.6562C30.6574 37.6562 33.2076 36.615 35.106 34.7556C35.2541 34.6107 35.4537 34.5306 35.6609 34.5329C35.8681 34.5352 36.0659 34.6196 36.2108 34.7677C36.3558 34.9157 36.4362 35.1151 36.4342 35.3223C36.4322 35.5295 36.348 35.7274 36.2001 35.8725C34.01 38.0176 31.0656 39.2188 28 39.2188Z" fill="#FFC491"/>
</svg>
