<svg width="40" height="40" viewBox="0 0 40 40" fill="none" xmlns="http://www.w3.org/2000/svg">
<circle cx="20" cy="20" r="20" fill="#FFC491"/>
<path d="M17.4604 15.9999C17.4604 14.5272 18.5975 13.3333 20.0001 13.3333C21.4027 13.3333 22.5398 14.5272 22.5398 15.9999V19.9999C22.5398 21.4727 21.4027 22.6666 20.0001 22.6666C18.5975 22.6666 17.4604 21.4727 17.4604 19.9999V15.9999Z" fill="#383838"/>
<path d="M25.1946 19.3333C25.1946 18.919 24.8588 18.5833 24.4446 18.5833C24.0303 18.5833 23.6946 18.919 23.6946 19.3333H25.1946ZM16.3057 19.3333C16.3057 18.919 15.9699 18.5833 15.5557 18.5833C15.1415 18.5833 14.8057 18.919 14.8057 19.3333H16.3057ZM21.9049 27.4166C22.3191 27.4166 22.6549 27.0808 22.6549 26.6666C22.6549 26.2524 22.3191 25.9166 21.9049 25.9166V27.4166ZM18.0953 25.9166C17.6811 25.9166 17.3453 26.2524 17.3453 26.6666C17.3453 27.0808 17.6811 27.4166 18.0953 27.4166V25.9166ZM21.7898 15.9999V19.9999H23.2898V15.9999H21.7898ZM18.2104 19.9999V15.9999H16.7104V19.9999H18.2104ZM20.0001 21.9166C19.0458 21.9166 18.2104 21.0934 18.2104 19.9999H16.7104C16.7104 21.852 18.1492 23.4166 20.0001 23.4166V21.9166ZM21.7898 19.9999C21.7898 21.0934 20.9545 21.9166 20.0001 21.9166V23.4166C21.851 23.4166 23.2898 21.852 23.2898 19.9999H21.7898ZM20.0001 14.0833C20.9545 14.0833 21.7898 14.9065 21.7898 15.9999H23.2898C23.2898 14.1478 21.851 12.5833 20.0001 12.5833V14.0833ZM20.0001 12.5833C18.1492 12.5833 16.7104 14.1478 16.7104 15.9999H18.2104C18.2104 14.9065 19.0458 14.0833 20.0001 14.0833V12.5833ZM23.6946 19.3333V19.9999H25.1946V19.3333H23.6946ZM16.3057 19.9999V19.3333H14.8057V19.9999H16.3057ZM20.0001 23.9166C17.9938 23.9166 16.3057 22.1979 16.3057 19.9999H14.8057C14.8057 22.9566 17.0972 25.4166 20.0001 25.4166V23.9166ZM23.6946 19.9999C23.6946 22.1979 22.0064 23.9166 20.0001 23.9166V25.4166C22.903 25.4166 25.1946 22.9566 25.1946 19.9999H23.6946ZM19.2501 24.6666V26.6666H20.7501V24.6666H19.2501ZM20.0001 27.4166H21.9049V25.9166H20.0001V27.4166ZM20.0001 25.9166H18.0953V27.4166H20.0001V25.9166Z" fill="#383838"/>
</svg>
